<svg xmlns="http://www.w3.org/2000/svg" viewBox="0 0 482.49 84.32"><defs><style>.cls-1{fill:#ffb600;}</style></defs><g id="Ebene_2" data-name="Ebene 2"><g id="Ebene_1-2" data-name="Ebene 1"><path class="cls-1" d="M54.25,59.66l-.12,2.17-.36,2.41-.48,2.28-.84,2.29-1,2.16-1.33,2.17-1.44,2L47,77.11l-1.92,1.68-2,1.56L40.9,81.56l-2.29,1.08-2.28.72L34,84l-2.28.24-2.17.12H0V69.53H14.8V.48H54.25V59.66Z"/><path class="cls-1" d="M82.64,59.66,73.86,84.32H59.06L88.66.6h39.45L157.7,84.32H113.31L106.1,59.66Zm12.75-36.2L86.13,49.8h17.08Z"/><path class="cls-1" d="M235.89,22.49l.12,2.17-.12,2.77-.6,3-.84,2.89-1.32,2.77-1.57,2.76-2,2.53-2.41,2.17-2.53,1.92,21.3,38.37h-29.6l-.24-.48-9.62-16.84V83.84H162V0h49.32l2.29.12,2.16.36,2.29.48,2.29.72,2.28,1.09L224.83,4l2,1.56,1.93,1.69,1.68,1.92,1.44,2,1.33,2.16,1,2.17.84,2.4.48,2.29ZM221.1,23.82l-.12-1-.12-.85-.36-1-.37-.84-.6-1-.6-.85-.6-.72-.84-.72-.72-.6-.85-.48-1-.36-.84-.36-1-.24h-1l-.84-.12h-4.93V34.52h5.77l1-.24,1-.12.84-.36,1-.36.85-.6.72-.48.84-.72.6-.72.6-.85.6-.84.37-1,.36-.84.12-1,.12-1,.12-.84Z"/><path class="cls-1" d="M311.8,61.23l9.38-26.35L324.67,25,333.33.36h14.79L318.53,84.08H279.08L254.54,14.31,249.61.36h44.26L301.21,25l2.89,9.86Z"/><path class="cls-1" d="M392.39,84.2H353.06V.48h39.33V84.2Z"/><path class="cls-1" d="M482.49,43.43V59.54l-.12,2.29-.24,2.29-.6,2.28-.72,2.29-1.09,2.16L478.52,73l-1.44,2L475.27,77l-1.8,1.68-2.05,1.56-2.28,1.21L467,82.52l-2.28.72-2.29.6-2.28.24-2.29.12-36.69-.12-2.29-.24-2.28-.6-2.29-.72L412,81.44,410,80.23l-2.16-1.56L406,77l-1.68-1.93-1.56-2-1.21-2.17-1.08-2.16-.72-2.29-.6-2.28-.24-2.29-.12-2.29V49.68H443V69.41h15.76l.84-.12,1-.24,1-.36.84-.36.84-.49.84-.6.73-.72.72-.72.6-.84.48-.84.36-1,.36-.84.24-1,.12-.84V49.2l-.12-.36v-.48l-.24-.48-.12-.48L467,47l-.36-.36-.36-.48-.36-.36-.36-.24-.48-.24-.48-.24-.36-.12-.49-.12h-.48l-.48-.12H412.24l-1.44-.24-1.33-.24L408,43.79l-1.32-.61-1.21-.84-1.32-.84-1.08-1.08L402,39.34l-.84-1.21-.84-1.32-.6-1.32L399.37,34,399,32.72l-.24-1.44V30l.12-7.09.24-2.29.6-2.29.72-2.28,1.08-2.29,1.21-2.16L404.3,9.5,406,7.7l1.81-1.81L410,4.45,412,3.25l2.28-1.08,2.29-.73,2.28-.6,2.29-.36h39l2.28.36,2.29.6,2.28.73,2.17,1.08,2.28,1.2,2.05,1.44,1.8,1.81,1.81,1.8,1.44,2.05,1.2,2.16L480.81,16l.72,2.28.6,2.29.24,2.29.12,2.16h-14.8v-.84l-.12-.84-.24-1-.36-1-.36-.84-.48-.84-.6-.84-.72-.73-.73-.72-.84-.6-.84-.48-.84-.48-1-.24-1-.24-.84-.12H443V30h24.66l1.33.12,1.44.24,1.32.24,1.45.49,1.32.6,1.32.84,1.21.84,1.08,1,1.08,1.21.84,1.2.73,1.32.72,1.33.48,1.32.24,1.44Z"/></g></g></svg>