<svg width="100%" height="100%" viewBox="0 0 817 995" version="1.1" xmlns="http://www.w3.org/2000/svg" xmlns:xlink="http://www.w3.org/1999/xlink" xml:space="preserve" xmlns:serif="http://www.serif.com/" style="fill-rule:evenodd;clip-rule:evenodd;stroke-linejoin:round;stroke-miterlimit:2;"><path d="M542.8,172.66c-52.56,-186.72 -205.99,-231.95 -351.17,-86.42c-156.79,157.09 -235.48,464.7 -166.53,669.06c66.67,197.8 240.42,202.15 380.14,27.82c63.53,-79.27 112.49,-186.82 137.52,-299.89c24.89,-111.56 24.89,-222.83 0.04,-310.57Z" style="fill-rule:nonzero;"/><path d="M555.92,176.78c-52.26,-186.76 -206.27,-231.94 -351.34,-86.41c-156.79,157.08 -235.31,464.57 -166.32,669.05c66.73,197.45 240.42,202.15 380.2,27.76c63.54,-79.24 112.43,-186.76 137.46,-299.89c24.8,-111.73 24.8,-222.76 0,-310.51Z" style="fill:rgb(61,54,50);fill-rule:nonzero;"/><path d="M667.83,226.49l-232.87,640l-254.94,-85.06l-3.14,-1c-2.029,-0.652 -3.978,-1.531 -5.81,-2.62c-6.294,-3.286 -11.379,-8.497 -14.51,-14.87c-11,-21.78 -31.07,-71.14 -37,-150.3c-13.46,-172.44 74.54,-490.04 256.69,-479.07c6.819,0.438 13.605,1.293 20.32,2.56l7.55,2.5l263.71,87.86Z" style="fill:rgb(245,184,63);fill-rule:nonzero;"/><path d="M667.77,226.26l65.92,0l0,435.13l-237.11,237.06l-155.87,-82.52l285.43,-598.33l41.63,8.66Z" style="fill:rgb(245,184,63);fill-rule:nonzero;"/><path d="M180.02,781.43c6.985,7.873 17.727,11.349 28,9.06" style="fill:rgb(245,184,63);fill-rule:nonzero;"/><path d="M171.48,777.6c-10.273,2.289 -21.015,-1.187 -28,-9.06c-6.985,-7.873 -69.21,-139.72 -25.38,-329.1c40.13,-173.58 108.43,-248.43 108.43,-248.43c0,-0 54.24,-61.79 122,-61.68c0,-0 20.79,-1.45 27.93,4" style="fill:rgb(245,184,63);fill-rule:nonzero;"/><path d="M216.84,794.15c7.887,5.928 17.547,9.025 27.41,8.79l-12,-5.81l-10.51,-4.24l-4.9,1.26Z" style="fill:rgb(245,184,63);fill-rule:nonzero;"/><path d="M404.1,138.34c8.537,-1.626 17.335,1.275 23.23,7.66l-24.84,0l1.61,-7.66Z" style="fill:rgb(245,184,63);fill-rule:nonzero;"/><path d="M402.49,137.81l-8.13,0.53c-1,0 -26.94,-1.63 -76.13,16.95c-49.19,18.58 -88.21,84.09 -88.62,84.73c-0.41,0.64 -67.89,102.21 -92,260.28c-21.41,140.77 35.56,267.14 42.23,281.13l-3.13,-1c-2.03,-0.65 -3.979,-1.529 -5.81,-2.62c-13.7,-31.06 -59.64,-148.66 -39.9,-278.75c24.34,-159.64 92.28,-261.79 92.92,-262.83c1.51,-2.62 40.65,-68.18 91.81,-87.46c19.51,-7.406 39.823,-12.494 60.52,-15.16c5.594,0.219 11.163,0.861 16.66,1.92l9.58,2.28Z" style="fill:rgb(227,167,44);fill-rule:nonzero;"/><path d="M441.34,150.99l-7.08,0.82c-1,0 -29.62,-2.44 -78.8,16.14c-49.18,18.58 -88.36,84.15 -88.86,84.79c-0.5,0.64 -67.88,102.21 -92,260.28c-21.43,140.77 35.54,267.14 42.22,281.13l-3.2,-1.1c-2.034,-0.612 -3.985,-1.472 -5.81,-2.56c-13.71,-31.07 -59.62,-148.66 -39.87,-278.75c24.27,-159.64 92.28,-261.8 92.91,-262.8c1.51,-2.62 40.66,-68.18 91.82,-87.46c19.458,-7.586 39.741,-12.859 60.43,-15.71c6.845,0.404 13.656,1.255 20.39,2.55l7.85,2.67Z" style="fill:rgb(227,167,44);fill-rule:nonzero;"/><path d="M475.03,161.33l-7.09,0.76c-1,-0 -29.61,-2.38 -78.8,16.14c-49.19,18.52 -88.27,84.09 -88.62,84.71c-0.35,0.62 -67.89,102.21 -92,260.34c-21.42,140.73 35.58,267.15 42.23,281.09l-3.14,-1c-2.034,-0.631 -3.982,-1.511 -5.8,-2.62c-13.71,-31.11 -59.64,-148.7 -39.9,-278.81c24.28,-159.64 92.28,-261.73 92.92,-262.83c1.51,-2.62 40.65,-68.18 91.81,-87.46c19.485,-7.521 39.799,-12.688 60.51,-15.39c6.844,0.383 13.656,1.218 20.39,2.5l7.49,2.57Z" style="fill:rgb(227,167,44);fill-rule:nonzero;"/><path d="M778.46,231.48c-57.09,-191.29 -215.92,-235.25 -362.78,-83.21c-158.58,164.11 -234.58,482 -160.28,691.06c71.77,202.33 250.58,204 391.52,22.42c63.88,-82.58 112.66,-194 136.59,-310.75c23.69,-115.45 21.95,-229.68 -5.05,-319.52Zm-22.42,315.46c-45.06,217.66 -183,394.38 -314.52,389.09c-140.65,-5.51 -213.94,-213.88 -156.1,-458.42c27.06,-114.35 79.44,-217.25 144.31,-285.61c63.3,-66.55 132.75,-94.19 193.09,-78.8c119.86,30.25 177.01,221.48 133.22,433.74Z" style="fill-rule:nonzero;"/><path d="M548.78,95.83c-155.87,58.53 -291.68,311.96 -291.68,561.85c0,249.89 135.81,372.26 291.68,280.43c144.43,-85.13 254,-326 254,-543.62c0,-217.62 -109.57,-352.9 -254,-298.66Zm84.21,630.67l-6.89,-21.9c29.221,-41.829 51.195,-88.279 65,-137.4l15.56,2.21c-15.053,56.315 -39.998,109.507 -73.67,157.09Zm-84.73,-162c-16.84,8.08 -30.49,-6.39 -30.67,-32.4c-0.18,-26.01 13.59,-54.65 30.67,-62.89c17.08,-8.24 30.54,6.44 30.72,32.4c0.18,25.96 -13.36,54.07 -30.2,62.66l-0.52,0.23Zm-172.6,175.35l18.3,-20.9c16.84,37.86 42.22,62.54 72.65,71.14l-6.91,31.24c-35.78,-8.31 -64.81,-36.99 -84.04,-81.48Zm84,-441.35l7.44,23.87c-32.731,42.077 -57.366,89.869 -72.65,140.94l-18.18,-3.31c18.59,-62.49 48.09,-119 83.4,-161.73l-0.01,0.23Zm37,182.06l-17.89,-2.91c5.909,-15.603 13.423,-30.55 22.42,-44.6l7.49,23.76c-4.556,7.544 -8.566,15.404 -12,23.52l-0.02,0.23Zm12,135l-7.49,30.89c-9.28,-5.438 -16.99,-13.196 -22.37,-22.51l17.89,-20.44c3.054,4.874 7.161,9.002 12.02,12.08l-0.05,-0.02Zm-20.86,-226.12c-18.284,25.721 -32.453,54.131 -42,84.21l-18.12,-3.25c11.711,-36.945 29.366,-71.735 52.27,-103l7.85,22.04Zm-59.81,292l18.06,-20c8.471,18.54 23.309,33.445 41.81,42l-7.32,30.66c-21.77,-7.66 -39.89,-26 -52.61,-52.67l0.06,0.01Zm278.75,-368.89l-15.8,17.39c-14.4,-36.71 -36.82,-62.84 -64.52,-74.45l6.57,-29c32.05,12.72 58.07,42.92 73.92,86.06l-0.17,-0Zm-45.24,49.6l-16.15,18c-7.423,-18.443 -21.011,-33.756 -38.44,-43.32l6.85,-29c20.1,9.06 36.65,27.93 47.91,54.36l-0.17,-0.04Zm-63.4,191.52l15.86,2.67c-5.45,15.258 -12.545,29.878 -21.16,43.6l-6.91,-23.23c4.729,-7.312 8.815,-15.021 12.21,-23.04Zm-0.93,-120.33c-2.767,-4.759 -6.127,-9.148 -10,-13.06l-1.28,0.64l6.91,-29.85c8.95,5.936 16.246,14.051 21.2,23.58l-16.83,18.69Zm8.42,208.66c16.57,-25.05 29.55,-52.299 38.56,-80.95l16.21,2.15c-10.658,36.004 -26.852,70.133 -48,101.16l-6.77,-22.36Z" style="fill:rgb(61,54,50);fill-rule:nonzero;"/><path d="M797.16,237.41c-53.84,-192.17 -212.26,-238.62 -361.62,-88.91c-161,161.61 -242,478.11 -171,688.39c68.65,203.26 247.39,208 391.18,28.57c65.3,-81.3 115.65,-192.22 141.44,-308.52c25.55,-115 25.55,-229.23 -0,-319.53Zm-27.41,315.1c-48.49,216.9 -189.2,391.43 -320.65,384.15c-140.54,-7.49 -210.58,-217.25 -148.9,-460.81c29,-114 82.87,-216 148.9,-283.33c64.23,-65.63 134.14,-92.16 194.25,-75.5c119.37,31.83 173.49,223.92 126.4,435.49Z" style="fill:rgb(34,35,33);fill-rule:nonzero;"/><path d="M611.5,486.83l0,-12.43l136.35,-154.65l-5.75,-20.15c-20.16,-70.79 -59.7,-118.06 -110.34,-130.72l-15.16,-3.89l-59.28,249.71l-16.67,7.24l-61.5,-202.15l-16.38,16.9c-57.08,58.5 -103.54,147.25 -127.76,245.9l-7,29l156,23.81c-0.23,4.294 -0.23,8.596 0,12.89l0,12.77l-156.78,174.88l7.32,21.6c24.51,75.5 71,119.17 128.28,122.54l16.15,0.93l61.67,-260.92l16.2,-8.31l59.25,192.36l15.15,-18.58c50.93,-62.2 90.36,-147.57 110.34,-238.1l5.81,-25.67l-135.9,-22.36c-0.23,-4.24 -0,-8.65 -0,-12.6Zm21.49,-260.34c32.05,13 58.07,43.26 73.92,86.35l-15.74,17.43c-14.63,-37.05 -37.05,-63.13 -64.69,-74.74l6.51,-29.04Zm-19.17,81.3c20.09,9.29 36.53,28.11 47.91,54.47l-16.14,18.12c-9.47,-20.73 -22.65,-35.77 -38.62,-43.61l6.85,-28.98Zm-20.91,83.51c8.972,5.907 16.271,14.03 21.19,23.58l-16.78,18.64c-2.743,-4.778 -6.106,-9.173 -10,-13.07l-1.34,0.64l6.93,-29.79Zm-216.61,68.7c18.59,-62.49 48.09,-119 83.4,-161.73l7.4,23.87c-32.73,42.154 -57.345,90.025 -72.59,141.17l-18.21,-3.31Zm51.34,10.4c11.711,-36.945 29.366,-71.735 52.27,-103l7.89,22.13c-18.275,25.704 -32.444,54.094 -42,84.15l-18.16,-3.28Zm32.06,350.81c-35.78,-8.19 -64.81,-36.87 -84,-81.36l18.3,-20.9c16.84,37.8 42.22,62.48 72.65,71.14l-6.95,31.12Zm20.79,-87.11c-21.72,-7.66 -39.9,-26 -52.27,-52.73l18.06,-20c8.485,18.53 23.319,33.431 41.81,42l-7.6,30.73Zm20.73,-87.57c-9.283,-5.434 -17.006,-13.175 -22.42,-22.47l17.89,-20.56c3.071,4.91 7.198,9.074 12.08,12.19l-7.55,30.84Zm-4.53,-166.2l-17.89,-2.91c5.931,-15.612 13.443,-30.577 22.42,-44.66l7.55,23.81c-4.65,7.587 -8.69,15.532 -12.08,23.76Zm52.26,83.91l-0.4,0c-16.84,8.13 -30.55,-6.3 -30.72,-32.3c-0.17,-26 13.59,-54.7 30.72,-63c17.13,-8.3 30.49,6.39 30.66,32.41c0.17,26.02 -13.65,54.29 -30.49,62.83l0.23,0.06Zm157.67,5.17c-14.984,56.332 -39.92,109.535 -73.63,157.09l-6.74,-21.9c29.177,-41.834 51.101,-88.285 64.85,-137.4l15.52,2.21Zm-46.11,-6.1c-10.657,36.005 -26.85,70.134 -48,101.16l-6.86,-22.41c16.734,-25.037 29.863,-52.305 39,-81l15.86,2.25Zm-67.65,36.7l-6.91,-23.23c4.731,-7.381 8.829,-15.148 12.25,-23.22l-0.93,-0l1.28,-0.64c-0.162,0.291 -0.28,0.604 -0.35,0.93l15.9,2.61c-5.492,15.216 -12.614,29.795 -21.24,43.48l-0,0.07Z" style="fill:rgb(34,35,33);fill-rule:nonzero;"/><path d="M578.98,501.58c0,26.13 -13.42,54.12 -30.26,62.66l-0.41,0c-16.84,8.13 -30.54,-6.27 -30.72,-32.29c-0.18,-26.02 13.59,-54.7 30.72,-63c17.13,-8.3 30.49,6.61 30.67,32.63Z" style="fill-rule:nonzero;"/></svg>