<svg xmlns="http://www.w3.org/2000/svg" viewBox="0 0 339.51 225.53"><defs><style>.cls-1,.cls-2{fill:none;stroke:#000;stroke-miterlimit:10;}.cls-1{stroke-width:6.7px;}.cls-2{stroke-width:5px;}</style></defs><g id="Ebene_2" data-name="Ebene 2"><g id="Ebene_1-2" data-name="Ebene 1"><path class="cls-1" d="M294.12,8.45a67.79,67.79,0,1,0,36.94,88.47A67.81,67.81,0,0,0,294.12,8.45Zm-25.76,80a17.32,17.32,0,1,1,17.31-17.31A17.31,17.31,0,0,1,268.36,88.47Z"/><rect x="250.55" y="15.21" width="7.93" height="32.08" rx="3.96" transform="translate(3.81 85.12) rotate(-19.13)"/><rect x="278.23" y="95.02" width="7.93" height="32.08" rx="3.96" transform="translate(-20.81 98.59) rotate(-19.13)"/><rect x="304.29" y="41.28" width="7.93" height="32.08" rx="3.96" transform="translate(261.41 -252.7) rotate(70.87)"/><rect x="224.49" y="68.95" width="7.93" height="32.08" rx="3.96" transform="translate(233.9 -158.69) rotate(70.87)"/><path class="cls-1" d="M3.35,208.29V189.91c0-2.77,1.2-5,2.69-5H292.48c1.48,0,2.69,2.25,2.69,5v16.22c0,2.77-1.2,5-2.68,5L6.05,213.31C4.56,213.32,3.35,211.07,3.35,208.29Z"/><path d="M288.25,143.26v38.63a6.36,6.36,0,0,1-6.35,6.35H254.8a6.36,6.36,0,0,1-6.35-6.35V143.26q3.33.92,6.7,1.51v36.77h26.4V144.77C283.8,144.38,286,143.87,288.25,143.26Z"/><path class="cls-2" d="M33.5,177H58.92s8.58-16.87,3.64-42c0,0-5.09-14.74-11.09-25.48H41.38S34.89,116.74,30,136.2C30,136.2,25,150.11,33.5,177Z"/><circle class="cls-2" cx="46.3" cy="157.24" r="8.3"/><path class="cls-2" d="M132.13,150.79l-.67.1a2.71,2.71,0,0,0,.25-1.3V138.77l7.28-3.66.73,1.5,16.44-8.35.07,0,9.37-4.75-1.25-.9,2.93-1.49,2.56,1.42,1.49.82,1.34.73,3.49,2,.58.32a3.09,3.09,0,0,1,1.31,1.32l2.28,4.33c1.16,2.79-.91,7.15-.91,7.15a9.78,9.78,0,0,0-1.16,6.4,10.69,10.69,0,0,0-3.41-3.15,15.74,15.74,0,0,0-8.51-1.65c-.41,0-.83.06-1.24.11h0c-.19,0-2.4.31-5.26.85a59.19,59.19,0,0,0-9.17,2.38c-.32.12-6.68,2.39-9,3.5A42,42,0,0,1,132.13,150.79Z"/><path class="cls-2" d="M123.45,171.74c-5.82-2.9-5.62-9.28-5.62-9.28.5-8.94,7.46-10.54,9.63-10.82a6,6,0,0,1,1,0l.87,0h.77l.44,0H131a38.61,38.61,0,0,0,10.86-3.43c2.35-1.11,9-3.47,9-3.47.35-.14.73-.26,1.1-.39l.26-.08.33-.11.47-.14.34-.11.46-.13.79-.21.52-.13h0l.77-.19.53-.13.5-.11h0l.78-.17.09,0,.43-.09.25,0,1.48-.3.35-.06.15,0,.13,0,.19,0,.33-.06.12,0,.2,0,.52-.09.21,0,.29-.05.16,0,.42-.08h.09l.37-.06.16,0,.26,0h.15l.13,0,.34-.05h.1l.12,0,.36,0a22.24,22.24,0,0,1,2.61-.16H169l.24,0h.2l.17,0h0l.23,0,.24,0,.1,0h.19l.19,0,.8.17.15,0h.07l.2,0,.22.07h0l.21.07.23.06.62.22.11,0,0,0h0l.08,0,.12,0a6.44,6.44,0,0,1,.65.3h.08l.06,0,.19.11.06,0,.28.15.13.09h0l.05,0,.07,0,.06,0a.57.57,0,0,1,.13.08l.25.18.05,0,0,0,0,0s0,0,.07.06l.07,0,0,0,.09.07a.87.87,0,0,1,.1.08s0,0,.05,0a2.75,2.75,0,0,1,.26.22l.23.21.09.1.1.09s0,0,0,0a.27.27,0,0,1,.07.08l.11.11v0l0,0,.05,0,.18.21a.43.43,0,0,0,.09.1v0l0,0,.06.08,0,0,.1.12.1.13c.07.09.13.19.21.28l0,0,0,0,0,0a.43.43,0,0,0,0,.07h0l.07.11c.11.16.21.32.31.49l.07.11a2,2,0,0,0,.13.25.47.47,0,0,0,.07.12l.06.12a12.44,12.44,0,0,1,1.29,4.47c-.08,6.15-3,9.21-5.83,10.72"/><path class="cls-2" d="M137.3,170.7A201.45,201.45,0,0,1,160.18,165"/><path class="cls-2" d="M174,176.78V155.32a6.92,6.92,0,0,0-6.93-6.92h0a6.92,6.92,0,0,0-6.92,6.92v21.46Z"/><path class="cls-2" d="M137.31,176.78V164.11a6.93,6.93,0,0,0-6.93-6.93h0a6.94,6.94,0,0,0-6.93,6.93v12.67Z"/><polygon class="cls-1" points="17.19 213.26 21.01 222.18 31.51 222.18 36.61 213.11 17.19 213.26"/><polygon class="cls-1" points="281.41 212.74 277.59 221.66 267.09 221.66 262 212.59 281.41 212.74"/></g></g></svg>