<svg xmlns="http://www.w3.org/2000/svg" viewBox="0 0 189.9 40.08"><defs><style>.cls-1{fill:#fff;}.cls-2{fill:#3a3a3a;}.cls-3,.cls-4{fill:#ffb600;}.cls-4,.cls-5{stroke:#3a3a3a;stroke-miterlimit:10;stroke-width:0.38px;}.cls-5{fill:#71aacc;}</style></defs><g id="Ebene_2" data-name="Ebene 2"><g id="Ebene_1-2" data-name="Ebene 1"><rect class="cls-1" width="189.9" height="40.08" rx="13.47"/><path class="cls-2" d="M63.49,26.71l-.32,1-.56.88L59.36,25V14.71l0-.25-.07-.28-.11-.24-.1-.28-.14-.25-.21-.24L58.52,13l-.21-.21-.24-.18-.25-.14-.28-.14-.28-.07L57,12.15l-.28,0H52.19V27.9h1.44l4.19,4.16-.7.1H45.82l-.66-.1-.66-.18-.67-.21-.66-.28L42.54,31l-.6-.42-.52-.53-.53-.52L40.47,29l-.38-.63-.28-.67L39.56,27l-.14-.67-.1-.66,0-.63V17.86l0-3.54.1-.63.14-.7.25-.66.28-.63.38-.63.42-.6.53-.56.52-.49.6-.45.63-.35.66-.31.67-.21.66-.18.66-.1h11.3l.7.1.67.18.66.21.64.31.63.35.6.45.57.49.49.56.46.6.35.63.32.63.21.66.18.7.07.63,0,.67-.07,10.88Zm-4.13,5.45-.84-.8-4.89-4.9,2.86-2.9,2.17,2.17,5.78,6.43Z"/><path class="cls-2" d="M77.17,32.13H65.73V7.78H77.17V32.13Z"/><path class="cls-3" d="M89.24,9.8h-2.7v9.44h-5.4V9.8H78.46v-2H89.24Z"/><path class="cls-3" d="M98.66,12.46v1.35H95.29v3.37h4v2H89.91V7.76h9.43v2h-4v2.68Z"/><path class="cls-3" d="M108.29,7.81l.31.05.31.08.32.1.29.15.3.16.29.2.25.24.25.25.2.28.16.3.15.31.1.31.08.31,0,.32,0,.29h-2v-.23l0-.13,0-.13-.06-.12-.07-.11-.08-.12-.1-.11-.1-.08-.11-.09L108.6,10l-.11-.07-.14,0-.13,0-.11,0H106v7.4h2.27l.13,0,.14-.05.11,0,.12-.07.11-.08.1-.1.1-.1.08-.12.07-.11.06-.13,0-.12,0-.13v-.25h2l0,.32,0,.31-.08.31-.1.31-.15.3-.16.3-.2.28-.25.26-.25.23-.29.21-.3.17-.29.15-.32.1-.31.08-.31,0-.3,0-5,0-.31,0-.32-.08L102,19l-.31-.15-.28-.17-.3-.21-.24-.23-.23-.26-.22-.28-.16-.3-.15-.3-.1-.31-.08-.31,0-.31V10.87l0-.32.08-.31.1-.31.15-.31.16-.3.22-.28.23-.25.24-.24.3-.2.28-.16L102,8l.31-.1.32-.08.31-.05h5.33Z"/><path class="cls-3" d="M122,7.79h2V19.26h-2v-5.4H118v5.4h-6.07V7.79H118v4.72H122Z"/><path class="cls-2" d="M88.63,28.39V20.7h2V32.22h-2l-4.07-7.67v7.67h-6.1V20.7h6.1Z"/><path class="cls-2" d="M102.92,25.4v3.7l0,.31-.08.32-.1.31-.15.3-.16.29-.22.29-.23.26-.26.23-.28.22-.3.16-.3.15-.31.1-.32.08-.31,0H91.42V20.65h8.12l.31,0,.31,0,.32.06.31.12.3.15.3.16.28.2.26.25.23.25.22.28.16.3.15.31.1.31.08.32,0,.31V25.4Zm-2-1.37v-.12l0-.12,0-.13,0-.13-.05-.12-.06-.11-.09-.12-.1-.11L100.4,23l-.12-.08-.12-.07-.11-.06-.13,0-.14,0-.11,0H96.83v7.46h2.84l.11,0,.14,0,.13-.05.11-.05.12-.07.12-.08.09-.1.1-.1.09-.11.06-.12.05-.13,0-.12,0-.13,0-.12V24Z"/><path class="cls-2" d="M115.24,26.78v2.35l0,.31-.07.32-.11.31-.14.3-.18.3-.2.28-.24.26-.25.23-.28.22-.3.16-.32.15-.31.1-.31.09-.32,0h-5.35l-.3,0-.31-.09-.32-.1-.31-.15-.3-.16-.28-.22-.26-.23-.24-.26-.21-.28-.17-.3-.14-.3-.1-.31-.07-.32,0-.31,0-5.06V20.69h6.1v9.48h2.28l.12,0,.13-.05.12-.05.13-.06.1-.09.1-.09.1-.1.08-.12.08-.12.05-.13,0-.11,0-.14V29l0-8.26h2Z"/><path class="cls-2" d="M127.67,26.6v2.22l0,.31,0,.31-.09.32-.1.31-.14.3-.17.3-.2.28-.25.26-.24.23-.29.22-.31.16-.3.15-.31.1-.31.09-.32,0h-5.35l-.32,0-.31-.09-.32-.1-.31-.15-.28-.16-.3-.22-.25-.23-.23-.26-.21-.28-.17-.3-.15-.3-.1-.31-.08-.32,0-.31,0-.31V27.46h6.08v2.71h2.28l.14,0,.13-.05.12-.05L125,30l.12-.09.1-.09.09-.1.09-.12.06-.12,0-.13,0-.11,0-.14V27.28l0-.07v-.06l0,0,0-.05,0-.07-.05-.05,0,0-.06,0-.07,0h0l-.06,0H125l-.07,0H118l-.2,0-.18,0-.2-.07-.18-.08-.16-.12-.18-.11-.15-.15-.15-.15-.12-.17-.11-.18-.09-.18-.05-.2,0-.18,0-.2v-.18l0-1,0-.32.08-.31.1-.32.15-.31.17-.3.21-.28.23-.25.25-.24.3-.2.28-.17.31-.15.32-.1.31-.08.32-.05h5.35l.32.05.31.08.31.1.3.15.31.17.29.2.24.24.25.25.2.28.17.3.14.31.1.32.09.31,0,.32,0,.29h-2v-.23l0-.13,0-.13,0-.12-.06-.11-.09-.12-.09-.1-.1-.1L125,23l-.11-.07-.12-.06-.13,0-.14,0-.11,0h-2.17v2h3.39l.18,0,.2,0,.18,0,.2.07.18.08.19.12.16.11.15.14.15.16.11.17.1.18.1.18.07.18,0,.2Z"/><path class="cls-2" d="M139.37,22.72h-2.71V32.2h-5.42V22.72h-2.7v-2h10.83Z"/><path class="cls-2" d="M150.32,23.73l0,.29,0,.38-.08.42-.11.39-.19.38-.21.38-.28.35-.33.3-.35.26,2.93,5.28h-4.07l0-.07-1.32-2.31v2.38h-6.1V20.64h7.09l.29.05.32.07.31.1.32.15.29.16.28.22.27.23.23.26.2.28.18.3.13.3.12.33.06.31Zm-2,.18v-.13l0-.12,0-.13-.05-.12-.08-.13-.09-.12-.08-.1L147.8,23l-.1-.09-.12-.06-.13-.05-.12-.05-.13,0h-.92v2.71h.79l.13,0,.13,0,.12,0,.13-.05.12-.08.1-.07.11-.1.08-.1.09-.11.08-.12.05-.13,0-.12,0-.13v-.13l0-.12Z"/><path class="cls-2" d="M157.78,32.2h-5.41V20.7h5.41V32.2Z"/><path class="cls-2" d="M167.38,25.4v1.35H164v3.39h4.07v2h-9.47V20.67h9.47v2H164v2.7Z"/><path class="cls-2" d="M180.34,26.6v2.22l0,.31,0,.31-.08.32-.1.31-.15.3-.17.3-.2.28-.24.26-.25.23-.28.22-.32.16-.29.15-.32.1-.31.09-.32,0h-5.35l-.32,0-.31-.09L171,32l-.32-.15-.28-.16-.3-.22-.24-.23L169.6,31l-.22-.28-.16-.3-.15-.3-.1-.31-.09-.32,0-.31,0-.31V27.46h6.09v2.71h2.28l.13,0,.13-.05.12-.05.11-.06.12-.09.1-.09.1-.1.08-.12.07-.12.05-.13,0-.11,0-.14,0-.11V27.4l0,0v-.07l0-.07,0-.06,0,0-.05-.05,0-.07-.05-.05-.05,0-.07,0-.06,0h0l-.07,0h-.07l-.06,0h-6.94l-.2,0-.18,0-.2-.07-.18-.08-.17-.12-.18-.11-.15-.15-.15-.15-.11-.17-.12-.18-.08-.18-.05-.2,0-.18,0-.2v-.18l0-1,0-.32.09-.31.1-.32.15-.31.16-.3.22-.28.23-.25.24-.24.3-.2.28-.17.32-.15.31-.1.31-.08.32-.05h5.35l.32.05.31.08.32.1.29.15.32.17.28.2.25.24.24.25.2.28.17.3.15.31.1.32.08.31,0,.32,0,.29h-2V24l0-.12,0-.13,0-.13-.05-.12-.07-.11-.08-.12-.1-.1-.1-.1-.12-.08-.11-.07-.12-.06-.13,0-.13,0-.12,0h-2.16v2h3.39l.18,0,.2,0,.18,0,.2.07.18.08.18.12.16.11.15.14.15.16.12.17.1.18.1.18.06.18,0,.2Z"/><path class="cls-2" d="M36.13,22.29l-4.55,7.82a4.5,4.5,0,0,1-3.88,2.22H18.6a4.5,4.5,0,0,1-3.88-2.22l-4.56-7.82a4.41,4.41,0,0,1,0-4.44L14.72,10A4.49,4.49,0,0,1,18.6,7.82h9.1A4.49,4.49,0,0,1,31.58,10l4.55,7.82A4.41,4.41,0,0,1,36.13,22.29Z"/><path class="cls-4" d="M32.23,24.06,29.4,28.91a1.86,1.86,0,0,1-1.62.93H18.56a1.88,1.88,0,0,1-1.63-.93l-.43-.74,0,0a1.27,1.27,0,0,1,0-1.21l.59-1.19a2.59,2.59,0,0,1,2.59-1.68Z"/><path class="cls-4" d="M22.09,10.3h5.65a1.88,1.88,0,0,1,1.63.93L34,19.15A1.85,1.85,0,0,1,34,21l-.43.74,0,0a1.27,1.27,0,0,1-1.07.57l-1.34.09a2.59,2.59,0,0,1-2.76-1.38Z"/><path class="cls-4" d="M15.15,25.86,12.32,21a1.87,1.87,0,0,1,0-1.86l4.61-7.92a1.91,1.91,0,0,1,1.63-.93h.9a1.28,1.28,0,0,1,1,.64l.75,1.1a2.54,2.54,0,0,1,.17,3.06Z"/><polygon class="cls-5" points="26.33 22.17 19.97 22.17 23.15 16.71 26.33 22.17"/></g></g></svg>