<svg xmlns="http://www.w3.org/2000/svg" viewBox="0 0 424.27 281.08"><defs><style>.cls-1,.cls-3{fill:none;stroke:#fff;stroke-miterlimit:10;}.cls-1{stroke-width:6.18px;}.cls-2{fill:#fff;}.cls-3{stroke-width:5.29px;}</style></defs><g id="Ebene_2" data-name="Ebene 2"><g id="Ebene_1-2" data-name="Ebene 1"><g id="Winder"><path class="cls-1" d="M368.36,9.5a85.16,85.16,0,1,0,46.41,111.13A85.16,85.16,0,0,0,368.36,9.5ZM336,110a21.75,21.75,0,1,1,21.75-21.75A21.74,21.74,0,0,1,336,110Z"/><rect class="cls-2" x="313.63" y="17.99" width="9.96" height="40.3" rx="4.98" transform="matrix(0.94, -0.33, 0.33, 0.94, 5.09, 106.5)"/><rect class="cls-2" x="348.4" y="118.25" width="9.96" height="40.3" rx="4.98" transform="translate(-25.84 123.42) rotate(-19.13)"/><rect class="cls-2" x="381.14" y="50.74" width="9.96" height="40.3" rx="4.98" transform="translate(326.59 -317.15) rotate(70.87)"/><rect class="cls-2" x="280.89" y="85.5" width="9.96" height="40.3" rx="4.98" transform="translate(292.03 -199.05) rotate(70.87)"/><path class="cls-1" d="M3.09,260.54V237.45c0-3.48,1.51-6.3,3.38-6.3H366.3c1.87,0,3.38,2.82,3.38,6.3v20.38c0,3.48-1.5,6.3-3.37,6.31L6.48,266.84C4.61,266.86,3.09,264,3.09,260.54Z"/><path class="cls-2" d="M361,177.75v48.53a8,8,0,0,1-8,8H319a8,8,0,0,1-8-8V177.75c2.79.77,5.59,1.39,8.42,1.9v46.19h33.17V179.65C355.4,179.16,358.2,178.52,361,177.75Z"/><path class="cls-3" d="M41,221.22H72.9S83.67,200,77.47,168.48c0,0-6.4-18.51-13.93-32H50.86S42.71,145.53,36.51,170C36.51,170,30.27,187.45,41,221.22Z"/><circle class="cls-3" cx="57.05" cy="196.42" r="10.43"/><path class="cls-3" d="M164.86,188.31l-.83.13a3.51,3.51,0,0,0,.31-1.63v-13.6l9.14-4.6.92,1.88L195.06,160l.08,0,11.77-6-1.57-1.13L209,151l3.22,1.77,1.88,1,1.67.92,4.39,2.47.73.39a3.94,3.94,0,0,1,1.65,1.66l2.86,5.44c1.46,3.5-1.14,9-1.14,9a12.2,12.2,0,0,0-1.46,8,13.39,13.39,0,0,0-4.29-4,17.37,17.37,0,0,0-8.89-2.15c-.58,0-1.18,0-1.79.07s-1,.08-1.57.14h0c-.24,0-3,.39-6.6,1.07a75.38,75.38,0,0,0-11.52,3c-.4.15-8.4,3-11.32,4.39A52.66,52.66,0,0,1,164.86,188.31Z"/><path class="cls-3" d="M154,214.63C146.66,211,146.91,203,146.91,203c.63-11.23,9.37-13.24,12.1-13.59a8.07,8.07,0,0,1,1.3,0l1.1,0a5.24,5.24,0,0,0,.56,0h.4a4.15,4.15,0,0,0,.56,0h.3a.11.11,0,0,1,.08,0h.18c5-.57,10.69-2.92,13.64-4.31s11.27-4.36,11.27-4.36c.44-.18.92-.33,1.38-.49a2.07,2.07,0,0,1,.33-.1l.41-.14.6-.17.42-.14.58-.17,1-.26.66-.16s0,0,0,0l1-.23.66-.17.63-.14h0l1-.21.11,0,.54-.11A2.84,2.84,0,0,0,198,178l1.86-.38.44-.08.19,0a1,1,0,0,0,.17,0l.23,0,.42-.07.15,0a.92.92,0,0,0,.25-.05l.65-.11.27,0L203,177l.2,0,.53-.1h.11l.47-.07a1.38,1.38,0,0,1,.2,0l.33-.05H205l.17,0,.42-.06h.13a.83.83,0,0,0,.15,0l.45-.05a27.55,27.55,0,0,1,3.28-.2H211a.12.12,0,0,1,.08,0h.08l.3,0h.25l.22,0h0l.29,0,.3,0,.12,0h.24l.24,0,1,.21.19,0h.08l.25.07.28.08h0c.09,0,.18.07.27.09l.29.08c.26.1.51.19.78.27a.76.76,0,0,0,.13.07l0,0h0l.1,0,.15.07a8.83,8.83,0,0,1,.82.37l0,0h.06l.07,0,.24.14.08,0,.35.19.16.11a0,0,0,0,1,0,0l.06,0,.09.07a.25.25,0,0,1,.08,0,.54.54,0,0,1,.16.1l.31.22.07,0,0,0,.05,0a.5.5,0,0,0,.08.07l.09.06.05,0,.12.09s.08.08.12.1.05,0,.06.07a2.16,2.16,0,0,1,.33.27l.29.27.11.12.13.11s0,0,0,0a.22.22,0,0,1,.09.1l.14.14v0l0,0,.06.05a1.47,1.47,0,0,0,.23.26.45.45,0,0,0,.11.13v0s0,0,0,0a.86.86,0,0,0,.07.1l0,0a1.58,1.58,0,0,0,.12.15l.13.16c.09.11.16.24.26.35l0,0s0,0,0,0,0,0,0,0,0,.06,0,.09h0a1.1,1.1,0,0,0,.09.14c.14.2.26.4.39.61,0,0,.05.09.09.14a3,3,0,0,0,.16.31.54.54,0,0,0,.09.15l.07.16a15.57,15.57,0,0,1,1.63,5.61c-.11,7.73-3.82,11.57-7.33,13.47"/><path class="cls-3" d="M171.37,213.32a253.44,253.44,0,0,1,28.74-7.12"/><path class="cls-3" d="M217.52,221V194a8.7,8.7,0,0,0-8.71-8.7h0a8.7,8.7,0,0,0-8.7,8.7v27Z"/><path class="cls-3" d="M171.37,221V205a8.7,8.7,0,0,0-8.7-8.7h0A8.7,8.7,0,0,0,154,205V221Z"/><polygon class="cls-1" points="20.48 266.79 25.28 277.99 38.47 277.99 44.87 266.6 20.48 266.79"/><polygon class="cls-1" points="352.39 266.13 347.6 277.33 334.41 277.33 328.01 265.95 352.39 266.13"/></g></g></g></svg>