<svg xmlns="http://www.w3.org/2000/svg" viewBox="0 0 463.76 463.76"><defs><style>.cls-1{fill:#fff;}.cls-2{fill:#3a3a3a;}.cls-3{fill:#ffb600;}.cls-3,.cls-4{stroke:#3a3a3a;stroke-miterlimit:10;stroke-width:5.48px;}.cls-4{fill:#71aacc;}</style></defs><g id="Ebene_2" data-name="Ebene 2"><g id="Ebene_1-2" data-name="Ebene 1"><g id="Logo_Final" data-name="Logo Final"><rect class="cls-1" width="463.76" height="463.76"/><path class="cls-2" d="M418.87,272.91,353.31,385.46a64.65,64.65,0,0,1-55.86,32H166.32a64.63,64.63,0,0,1-55.87-32L44.89,272.91a63.37,63.37,0,0,1,0-63.91L110.45,96.45a64.61,64.61,0,0,1,55.87-32H297.45a64.63,64.63,0,0,1,55.86,32L418.87,209A63.41,63.41,0,0,1,418.87,272.91Z"/><path class="cls-3" d="M362.68,298.41,322,368.31a27.06,27.06,0,0,1-23.38,13.38H165.78a27,27,0,0,1-23.38-13.38l-6.28-10.77c-.08-.14-.15-.28-.23-.41-4.94-8.48.58-17.38.58-17.38l8.45-17.19c11.18-27,37.25-24.15,37.25-24.15Z"/><path class="cls-3" d="M216.62,100.22l81.44,0a27.05,27.05,0,0,1,23.38,13.38l66.33,114a26.55,26.55,0,0,1,0,26.76l-6.28,10.77-.25.41c-4.94,8.46-15.48,8.18-15.48,8.18l-19.25,1.32c-29.19,3.9-39.72-19.92-39.72-19.92Z"/><path class="cls-3" d="M116.74,324.33,76,254.44a26.59,26.59,0,0,1,0-26.76l66.4-114a27,27,0,0,1,23.38-13.37h13c9.87,0,14.9,9.18,14.9,9.18l10.79,15.85c18,23.1,2.49,44.05,2.49,44.05Z"/><polygon class="cls-4" points="277.68 271.19 186.08 271.19 231.88 192.57 277.68 271.19"/></g></g></g></svg>