<svg xmlns="http://www.w3.org/2000/svg" viewBox="0 0 1007.2 147.94" xmlns:v="https://vecta.io/nano"><path d="M319.92 113.48l-1.87 6-3.32 5.15-19.08-21V42.9l-.21-1.44-.44-1.65-.62-1.44-.62-1.64-.76-1.44-1.23-1.44-1-1.24-1.24-1.23-1.44-1-1.44-.83-1.65-.85-1.65-.41-1.44-.41-1.65-.21h-26.8v92.8h8.44L286.59 145l-4.11.62H216l-3.9-.62-3.91-1-3.91-1.23-3.91-1.65-3.71-2.26-3.49-2.47-3.09-3.09-3.08-3.16-2.47-3.49-2.26-3.71-1.65-3.94-1.44-3.91-.82-3.91-.62-3.91-.2-3.7V61.42l.2-20.78.62-3.71.82-4.11 1.44-3.91 1.65-3.71 2.26-3.7L187 18l3.09-3.29 3.09-2.88 3.49-2.68 3.71-2.05 3.91-1.86L208.2 4l3.91-1 3.9-.62h66.47l4.11.62 3.91 1 3.91 1.23 3.73 1.86 3.73 2.05 3.53 2.68 3.32 2.88 2.9 3.29 2.7 3.5 2.07 3.7 1.87 3.71 1.24 3.91 1 4.11.42 3.71.2 3.91-.41 64zm-24.27 32.1l-4.94-4.74L261.9 112l16.87-17 12.76 12.76 34 37.86zm104.73-.21h-67.29V2.16h67.29v143.21z" fill="#3a3a3a"/><path d="M471.37 14H455.5v55.56h-31.74V14H408V2.12h63.38zm55.44 15.7v7.93H507v19.84h23.8v11.9h-55.46V2h55.44v11.93H507V29.7zm56.61-27.39l1.84.29 1.83.49 1.84.58 1.75.87 1.74 1 1.74 1.16 1.45 1.45 1.45 1.45 1.16 1.65 1 1.74.87 1.84.58 1.84.49 1.83.19 1.84.1 1.74h-11.94v-.67l-.09-.68-.2-.77-.19-.78-.39-.68-.38-.67-.49-.68-.58-.68-.58-.48-.68-.49-.67-.38-.68-.39-.77-.19-.78-.2-.68-.09h-12.67v43.51h12.67l.68-.1.78-.19.77-.29.68-.29.67-.39.68-.48.58-.58.58-.58.49-.68.38-.68.39-.77.19-.68.2-.77.09-.68v-.78h11.91l-.1 1.84-.19 1.84-.49 1.84-.58 1.84-.87 1.74-1 1.74-1.16 1.65-1.45 1.54-1.45 1.36-1.74 1.26-1.74 1-1.75.88-1.84.58-1.83.48-1.84.19-1.74.1-29.61-.1-1.84-.19-1.84-.48-1.84-.58-1.84-.88-1.64-1-1.74-1.26-1.45-1.36-1.36-1.54-1.26-1.65-1-1.74-.88-1.74-.58-1.84-.48-1.84-.19-1.84-.1-1.84V22.05l.1-1.74.19-1.84.48-1.83.58-1.84.95-1.8 1-1.74 1.26-1.65 1.36-1.45 1.45-1.45 1.74-1.16 1.64-1 1.84-.87 1.84-.58 1.84-.49 1.84-.29h31.35zm80.89-.09h11.9v67.44h-11.9V37.92h-23.8v31.74H604.8V2.22h35.71V30h23.8z" fill="#ffb600"/><path d="M467.78 123.36v-45.2h12v67.75h-12l-23.92-45.1v45.1H408V78.16h35.87zm84.09-17.59v19.92l-.1 1.85-.2 1.85-.48 1.85-.59 1.84-.87 1.75-1 1.75-1.27 1.66-1.36 1.55-1.55 1.36-1.66 1.27-1.75 1-1.75.87-1.84.59-1.85.48-1.85.2-1.84.09h-47.7V77.87h47.73l1.84.09 1.85.29 1.85.39 1.84.68 1.75.88 1.75 1 1.66 1.17L546 83.8l1.36 1.45 1.27 1.66 1 1.75.87 1.84.59 1.85.48 1.85.2 1.85.1 1.74zm-12-8V97l-.1-.68-.19-.78-.3-.78-.29-.68-.39-.68-.48-.68-.59-.69-.58-.48-.68-.49-.68-.39-.68-.39-.78-.2-.78-.19-.68-.1H516v43.85h16.72l.68-.1.78-.2.78-.29.68-.29.68-.39.68-.49.58-.58.59-.59.48-.68.39-.68.29-.78.3-.68.19-.78.1-.68V97.72zm84.42 16.16v13.81l-.29 1.84-.39 1.85-.68 1.85-.78 1.75-1.07 1.75-1.17 1.65-1.45 1.57-1.46 1.35-1.66 1.26-1.74 1-1.85.88-1.85.58-1.85.49-1.84.19-29.65.1-1.85-.1-1.75-.19-1.85-.49-1.84-.58-1.85-.88-1.75-1-1.67-1.26-1.54-1.35-1.36-1.56-1.26-1.65-1-1.75-.87-1.75-.58-1.85-.39-1.85-.29-1.84-.08-29.75V78.06h35.87v55.8h12.64l.78-.1.68-.19.77-.29.68-.29.78-.39.59-.49.58-.58.58-.59.49-.68.48-.68.3-.77.19-.68.19-.78.1-.68.1-48.61h11.86zm73.1-1.07v13l-.1 1.85-.19 1.84-.49 1.85-.58 1.85-.88 1.75-1 1.75-1.15 1.68-1.44 1.57-1.46 1.36-1.65 1.26-1.85 1-1.75.88-1.85.5-1.84.49-1.85.19-1.85.1-29.65-.1-1.85-.19-1.84-.49-1.85-.58-1.85-.88-1.65-1-1.77-1.19-1.44-1.35-1.36-1.56-1.26-1.65L632 135l-.88-1.75-.58-1.85-.49-1.85-.19-1.84-.1-1.85v-8h35.74v15.94h12.74l.68-.1.78-.19.78-.29.68-.29.68-.39.68-.49.58-.58.58-.59.49-.68.39-.68.29-.77.29-.68.2-.78.09-.68v-9.14l-.09-.29v-.39l-.2-.39-.1-.39-.19-.29-.29-.29-.29-.39-.29-.29-.3-.2-.38-.19-.39-.2-.3-.09-.38-.1h-.39l-.39-.1h-40.83l-1.17-.19-1.07-.2-1.16-.39-1.07-.48-1-.68-1.06-.68-.88-.88-.87-.87-.69-1-.68-1.07-.48-1.07-.29-1.17-.3-1.07-.19-1.17V102l.1-5.73.19-1.85.49-1.85.58-1.84.88-1.85 1-1.75 1.26-1.65 1.35-1.48 1.44-1.47 1.75-1.16 1.65-1 1.85-.87 1.85-.58 1.84-.49 1.85-.29h31.5l1.85.29 1.84.49 1.85.58 1.75.87 1.85 1 1.65 1.16 1.48 1.47 1.44 1.45 1.16 1.65 1 1.75.84 1.85.58 1.84.49 1.85.19 1.85.1 1.75h-12v-.68l-.09-.68-.2-.78-.29-.78-.29-.68-.39-.68-.49-.68-.58-.58-.58-.59-.68-.48-.68-.39-.68-.39-.78-.19-.78-.2-.68-.1H665.5V102h19.93l1.07.1 1.17.2 1.07.19 1.17.39 1.06.49 1.03.63 1 .68.87.77.88 1 .68 1 .58 1.07.58 1.07.39 1.07.2 1.16zM766.22 90h-16v55.8h-31.83V90h-15.85V78h63.68zm64.45 6l.1 1.75-.1 2.23-.49 2.43-.68 2.34-1.07 2.23-1.26 2.24-1.65 2-1.95 1.78-2 1.56 17.21 31h-23.96l-.19-.39-7.78-13.61v14H771V77.77h39.86l1.84.1 1.75.29 1.85.39 1.85.58L820 80l1.74 1 1.66 1.26 1.55 1.36 1.36 1.56 1.17 1.65 1.07 1.75.78 1.75.68 1.94.39 1.85zm-12 1.07l-.1-.78-.09-.68-.29-.78-.3-.68-.48-.78-.49-.68-.48-.58-.69-.58-.58-.49-.68-.39-.78-.29-.68-.29-.77-.2h-.78l-.68-.09h-4v15.94h4.67l.78-.2.77-.09.68-.29.78-.3.68-.48.58-.39.69-.58.48-.59.49-.68.48-.68.3-.78.29-.68.09-.77.1-.78.1-.68zm55.84 48.75h-31.79V78.16h31.79v67.66zM931 105.77v8h-19.94v19.93H935v12h-55.73V78H935v12h-23.94v15.85zm76.2 7.09v13l-.09 1.85-.2 1.84-.48 1.85-.59 1.85-.84 1.75-1 1.75-1.17 1.65-1.46 1.56-1.46 1.36-1.65 1.26-1.85 1-1.75.88-1.84.58-1.85.49-1.85.19-1.84.1-29.65-.1-1.85-.19-1.85-.49-1.84-.58-1.85-.88-1.65-1-1.75-1.26-1.46-1.32-1.38-1.57-1.27-1.65-1-1.75-.87-1.75-.59-1.85-.48-1.85-.2-1.84-.09-1.85v-8h35.77v15.94H988l.68-.1.78-.19.78-.29.76-.25.68-.39.68-.49.58-.58.59-.59.48-.68.39-.68.29-.77.3-.68.19-.78.1-.68v-9.14l-.1-.29v-.39l-.19-.39-.1-.39-.2-.29-.29-.29-.29-.39-.29-.29-.29-.2-.39-.19-.39-.2-.29-.09-.46-.14h-.39l-.39-.1h-40.79l-1.16-.19-1.07-.2-1.17-.39-1.07-.48-1-.68-1.07-.68-.88-.88-.87-.87-.68-1-.68-1.07-.49-1.07-.29-1.17-.29-1.07-.19-1.17V102l.09-5.73.2-1.85.48-1.85.59-1.84.87-1.85 1-1.75 1.25-1.68 1.38-1.45 1.46-1.46 1.75-1.16 1.65-1 1.85-.87 1.84-.58 1.85-.49 1.85-.29h31.49l1.85.29 1.85.49 1.84.58 1.75.87 1.85 1 1.65 1.16 1.46 1.46 1.46 1.46 1.17 1.64 1 1.75.87 1.85.59 1.84.48 1.85.2 1.85.09 1.75h-12v-.68l-.1-.68-.19-.78-.3-.78-.29-.68-.39-.68-.46-.71-.59-.58-.58-.59-.68-.48L991 91l-.68-.39-.78-.19-.78-.2-.68-.1h-12.76V102h19.93l1.07.1 1.16.2 1.07.19 1.17.39 1.07.49 1.07.68 1 .68.88.77.87 1 .68 1 .58 1.07.59 1.07.39 1.07.19 1.16zM159 87.37l-27.24 47.17a26.79 26.79 0 0 1-23.2 13.4H54a26.79 26.79 0 0 1-23.2-13.4L3.59 87.37a26.79 26.79 0 0 1 0-26.8L30.83 13.4A26.79 26.79 0 0 1 54 0h54.48a26.79 26.79 0 0 1 23.2 13.4L159 60.57a26.79 26.79 0 0 1 0 26.8z" fill="#3a3a3a"/><path d="M135.61 98.05l-16.92 29.3A11.18 11.18 0 0 1 109 133H53.81a11.2 11.2 0 0 1-9.71-5.61l-2.61-4.51a1 1 0 0 0-.1-.17c-2-3.56.24-7.29.24-7.29l3.52-7.2a15.47 15.47 0 0 1 15.47-10.17zM74.93 15h33.83a11.21 11.21 0 0 1 9.71 5.61L146 68.41a11.2 11.2 0 0 1 0 11.21l-2.61 4.52-.1.17c-2.05 3.55-6.43 3.43-6.43 3.43l-8 .55a15.47 15.47 0 0 1-16.5-8.35zm-41.49 93.92l-16.92-29.3a11.2 11.2 0 0 1 0-11.21l27.57-47.79A11.25 11.25 0 0 1 53.81 15h5.41c4.1 0 6.19 3.85 6.19 3.85l4.48 6.64a15.47 15.47 0 0 1 1 18.47z" fill="#ffb600" stroke="#3a3a3a" stroke-miterlimit="10" stroke-width="6"/><path d="M100.3 86.64H62.24l19.03-32.95 19.03 32.95z" stroke="#3a3a3a" stroke-miterlimit="10" stroke-width="6" fill="#71aacc"/></svg>